<?xml version="1.0" encoding="utf-8"?>
<!-- Generator: Adobe Illustrator 18.0.0, SVG Export Plug-In . SVG Version: 6.00 Build 0)  -->
<!DOCTYPE svg PUBLIC "-//W3C//DTD SVG 1.1//EN" "http://www.w3.org/Graphics/SVG/1.1/DTD/svg11.dtd">
<svg version="1.1" id="图层_1" xmlns="http://www.w3.org/2000/svg" xmlns:xlink="http://www.w3.org/1999/xlink" x="0px" y="0px"
	 viewBox="0 0 110.7 12" enable-background="new 0 0 110.7 12" xml:space="preserve">
<g>
	<path fill-rule="evenodd" clip-rule="evenodd" fill="#C8C8C8" d="M1,11h12.5V4.9L1,11z M13.5,4h1v1V11v1h-1H1H0v-1V4.9V4h1H13.5z"
		/>
	<polygon fill-rule="evenodd" clip-rule="evenodd" fill="#C8C8C8" points="18.3,1.1 18.3,8.2 17.3,8.2 17.3,1.1 3.8,1.1 3.8,0.1 
		17.3,0.1 18.3,0.1 	"/>
	<path fill="#C8C8C8" d="M32.1,7.6V4.9h-5.6V4h12.9v0.9h-5.1v2.7h5.1v0.9h-5.1v2.7h5.1V12H26.6v-0.9h5.6V8.4h-5.6V7.6H32.1z
		 M38.8,2.2h0.9v0.9h-3l-0.8-2.2h-5.9l-0.8,2.2h-3V2.2h0.8L27.9,0H38L38.8,2.2z M40.9,1.3h-0.4V0.4h0.4V0h1.9v0.4h1.3V0H46v0.4h0.4
		v0.9H46v6.9l-1.4,1.5l1.3,1.4h0.5V12h-1.9l-1-1.1l-1,1.1h-1.9v-0.9h0.6l1.2-1.3l-1.4-1.5V1.3z M53.5,0v0.4h0.4v0.9h-0.4v3.8h-6.2
		V1.3h-0.4V0.4h0.4V0h1.9v0.4h2.5V0H53.5z M51.3,5.6v0.4h2.6V7h-2.6v5h-1.9V7h-2.6V6.1h2.6V5.6H51.3z M44.1,1.3h-1.3v6.5l0.7,0.7
		l0.6-0.7V1.3z M46.9,11.1h0.3l0.1-3.5h1.5L48.6,12h-1.8V11.1z M53.6,11.1h0.3V12h-1.8L52,7.6h1.5L53.6,11.1z M49.1,2.4h2.5v-1h-2.5
		V2.4z M49.1,4.3h2.5v-1h-2.5V4.3z M59.3,2h1.9L61,8.9h1.3V1.3h-3.5V0.4h3.5V0h2.1v0.4h3.7v0.9h-3.7v7.6h1.3L65.6,2h1.9l0.2,9.1h0.4
		V12h-2.3l-0.1-2.2h-1.3V12h-2.1V9.8H61L60.9,12h-2.4v-0.9H59L59.3,2z M58.4,0v0.9h-0.7V12h-2.1V0.9h-0.7V0H58.4z M82.2,7.1V12h-8.6
		V7.1H82.2z M69,5.7l1.1-0.2V1.3H69V0.4h1.1V0h2.1v0.4h0.7v0.9h-0.7V5l0.7-0.2v0.9l-0.7,0.2V12H69v-0.9h1.1V6.4L69,6.7V5.7z
		 M74.1,3.1l-0.2-1.2h1.8L76,3.1h1V1.9h2v1.2h1l0.3-1.2h1.8l-0.3,1.2h0.7V4h-3.4v2.5h-2V4h-3.4V3.1H74.1z M73.5,0.4h6.9V0h2v1.3
		h-8.9V0.4z M79.8,4.5h1.8l0.1,1.2h0.7v0.9H80L79.8,4.5z M75.8,6.5h-2.4V5.6h0.7l0.1-1.2h1.8L75.8,6.5z M78.9,8v1.1h1.3V8H78.9z
		 M78.9,11.1h1.3V10h-1.3V11.1z M75.6,11.1H77V10h-1.3V11.1z M75.6,9.1H77V8h-1.3V9.1z M84,1.3h-0.7V0.4h2.1V0h2.2v0.4h2.2v0.9h-3.7
		l0,1.8h3.7V12h-3.1v-0.9h1V4h-1.6l-0.2,8h-2.6v-0.9h0.5L84,1.3z M93.5,4.2L94.3,2h2l-1.8,4.9l1.6,4.2h0.5V12h-2.2l-0.9-2.4L92.6,12
		h-2.2v-0.9h0.5l1.6-4.2L90.6,2h2L93.5,4.2z M92.5,0v0.4h4.1v0.9h-6.2V0H92.5z M110.7,4.3v1.3h-4.3l2,0.9h2.2v0.9h-4.2l-2.4-1.1
		l-2.4,1.1h-4.2V6.6h2.2l2-0.9h-4.2V4.8h5.5V4.4h2.1v0.4h3.3V4.3H110.7z M97.7,8.1h6.1V12h-6.1V8.1z M110.7,8.1V12h-6.1V8.1H110.7z
		 M97.7,0h6.1v3.8h-6.1V0z M104.6,0h6.1v3.8h-6.1V0z M99.8,9v2.1h1.8V9H99.8z M106.7,9v2.1h1.8V9H106.7z M99.8,0.9v2h1.8v-2H99.8z
		 M106.7,0.9v2h1.8v-2H106.7z"/>
	<polygon fill-rule="evenodd" clip-rule="evenodd" fill="#C8C8C8" points="16.3,3 16.3,10.1 15.4,10.1 15.4,3 1.9,3 1.9,2.1 
		15.4,2.1 16.3,2.1 	"/>
</g>
</svg>
